<?xml version="1.0" encoding="utf-8"?>
<!DOCTYPE svg PUBLIC "-//W3C//DTD SVG 1.1//EN" "http://www.w3.org/Graphics/SVG/1.1/DTD/svg11.dtd">
<svg version="1.1" id="Capa_1" xmlns="http://www.w3.org/2000/svg" xmlns:xlink="http://www.w3.org/1999/xlink" x="0px" y="0px" width="80px" height="80px"
	 viewBox="0 0 60 60" enable-background="new 0 0 60 60" xml:space="preserve">
<path opacity="0.7" fill-opacity="0.7" d="M30,0C16.1,0,0,10.9,0,30s16.1,30,30,30s30-10.9,30-30S43.9,0,30,0z"/>
<path fill="#FFFFFF" d="M46.1,17.3L33,30.1l11.3,12.7c0.8,0.8,0.8,2.3,0,3.4c-0.8,0.7-2.3,0.7-3.4,0L30,33.4L17.3,46.2
	c-0.8,0.7-2.3,0.7-3.4,0c-0.8-0.8-0.8-2.3,0-3.4l12.8-12.7L15.4,17.3c-0.8-1.1-0.8-2.3,0-3.4c0.7-1.1,2.3-0.8,3.4,0L30,26.7
	l12.8-12.8c0.7-0.8,2.3-0.8,3.4,0C46.9,15.1,46.9,16.2,46.1,17.3z"/>
</svg>
